<?xml version="1.0" encoding="UTF-8"?>
<!DOCTYPE svg PUBLIC "-//W3C//DTD SVG 1.1//EN" "http://www.w3.org/Graphics/SVG/1.1/DTD/svg11.dtd">
<!-- Creator: CorelDRAW 2018 (64 Bit) -->
<svg xmlns="http://www.w3.org/2000/svg" xml:space="preserve" width="40px" height="60px" version="1.1" style="shape-rendering:geometricPrecision; text-rendering:geometricPrecision; image-rendering:optimizeQuality; fill-rule:evenodd; clip-rule:evenodd"
viewBox="0 0 40 60"
 xmlns:xlink="http://www.w3.org/1999/xlink">
 <defs>
  <style type="text/css">
   <![CDATA[
    .fil0 {fill:black}
   ]]>
  </style>
 </defs>
 <g id="Camada_x0020_1">
  <metadata id="CorelCorpID_0Corel-Layer"/>
  <g id="_2448323270080">
   <path class="fil0" d="M0.95 13.09c0,3.7 8.47,5.91 8.47,9.17l0 35.98 5.64 0 0 -19.76 5.65 0 0 19.76 5.64 0 0 -33.87 1.84 2.4c0.97,1.35 1.1,1.54 2.09,2.85 1.57,2.07 3.15,3.5 3.83,6.04 2.28,-0.61 3.78,-1.8 4.94,-3.53 -0.54,-2.01 -3.87,-6.11 -5.34,-8.06 -8.64,-11.42 -4.23,-7.48 -18.69,-8.12 -4.11,-0.18 -8.42,-3.62 -8.42,-5.68l0 -8.47 -5.65 0 0 11.29z"/>
   <path class="fil0" d="M12.24 7.44c0,7.58 11.29,7.58 11.29,0 0,-7.57 -11.29,-7.57 -11.29,0z"/>
  </g>
 </g>
</svg>
